<?xml version="1.0" encoding="UTF-8" standalone="no"?>
<!-- Created with Inkscape (http://www.inkscape.org/) -->

<svg
   xmlns:dc="http://purl.org/dc/elements/1.1/"
   xmlns:cc="http://creativecommons.org/ns#"
   xmlns:rdf="http://www.w3.org/1999/02/22-rdf-syntax-ns#"
   xmlns:svg="http://www.w3.org/2000/svg"
   xmlns="http://www.w3.org/2000/svg"
   xmlns:sodipodi="http://sodipodi.sourceforge.net/DTD/sodipodi-0.dtd"
   xmlns:inkscape="http://www.inkscape.org/namespaces/inkscape"
   width="100mm"
   height="100mm"
   viewBox="0 0 100 100"
   version="1.1"
   id="svg8"
   inkscape:version="0.92.4 (5da689c313, 2019-01-14)"
   sodipodi:docname="Zeichnung.svg"
   inkscape:export-filename="D:\Zeichnung.png"
   inkscape:export-xdpi="16.26"
   inkscape:export-ydpi="16.26">
  <defs
     id="defs2" />
  <sodipodi:namedview
     id="base"
     pagecolor="#ffffff"
     bordercolor="#666666"
     borderopacity="1.0"
     inkscape:pageopacity="0.0"
     inkscape:pageshadow="2"
     inkscape:zoom="0.7"
     inkscape:cx="73.762807"
     inkscape:cy="-10.401606"
     inkscape:document-units="px"
     inkscape:current-layer="layer1"
     showgrid="false"
     inkscape:window-width="1920"
     inkscape:window-height="1137"
     inkscape:window-x="-8"
     inkscape:window-y="-8"
     inkscape:window-maximized="1" />
  <metadata
     id="metadata5">
    <rdf:RDF>
      <cc:Work
         rdf:about="">
        <dc:format>image/svg+xml</dc:format>
        <dc:type
           rdf:resource="http://purl.org/dc/dcmitype/StillImage" />
        <dc:title />
      </cc:Work>
    </rdf:RDF>
  </metadata>
  <g
     inkscape:label="Ebene 1"
     inkscape:groupmode="layer"
     id="layer1"
     transform="translate(0,-197)">
    <path
       style="fill:#000000;fill-opacity:1;stroke:none;stroke-width:0.26458332px;stroke-linecap:butt;stroke-linejoin:miter;stroke-opacity:1"
       d="m 207.41431,465.60598 c -0.15249,-1.55368 -0.34488,-3.13129 -0.0668,-4.42665 1.39426,-1.66301 1.54793,-1.62589 2.47225,-2.13815 l 0.4176,0.98556 c -2.13502,1.89826 -1.92272,3.72081 -2.82304,5.57924 z"
       id="path4644-73"
       inkscape:connector-curvature="0"
       sodipodi:nodetypes="ccccc" />
    <path
       style="fill:#000000;fill-opacity:1;stroke:none;stroke-width:0.26458332px;stroke-linecap:butt;stroke-linejoin:miter;stroke-opacity:1"
       d="m 201.20755,468.71359 c -0.15249,-1.55368 -0.34487,-3.13129 -0.0668,-4.42665 1.39426,-1.66301 1.54794,-1.62589 2.47225,-2.13815 l 0.4176,0.98556 c -2.13502,1.89826 -1.92272,3.72081 -2.82303,5.57924 z"
       id="path4644-7-8"
       inkscape:connector-curvature="0"
       sodipodi:nodetypes="ccccc" />
    <path
       style="fill:#f28071;fill-opacity:1;stroke:none;stroke-width:0.26458332px;stroke-linecap:butt;stroke-linejoin:miter;stroke-opacity:1"
       d="m 203.36547,461.36794 c -2.99624,3.47462 -2.22471,6.83708 -2.07887,9.6384 1.6374,-6.78283 4.12175,-7.65622 6.70908,-8.97694 4.07549,-1.77613 9.52471,-4.926 11.81176,-4.91369 4.12476,0.75376 5.49666,1.71939 6.2366,3.59078 0.66397,-3.14472 -2.11098,-4.70728 -6.61458,-6.33111 l 2.83482,-8.22098 -1.88988,-0.85045 c -1.85677,6.44071 -10.38809,11.02305 -17.00893,16.06399 z"
       id="path4640-7"
       inkscape:connector-curvature="0"
       sodipodi:nodetypes="ccccccccc" />
    <path
       style="fill:#000000;fill-opacity:1;stroke:none;stroke-width:0.26458332px;stroke-linecap:butt;stroke-linejoin:miter;stroke-opacity:1"
       d="m 201.20755,471.07594 c -0.15249,-1.55368 -0.34487,-3.13129 -0.0668,-4.42665 1.39426,-1.66301 1.54794,-1.62589 2.47225,-2.13815 l 0.4176,0.98556 c -2.13502,1.89826 -1.92272,3.72081 -2.82303,5.57924 z"
       id="path4644-1-6"
       inkscape:connector-curvature="0"
       sodipodi:nodetypes="ccccc" />
    <path
       style="fill:#d37b1e;fill-opacity:1;stroke:none;stroke-width:0.26458332px;stroke-linecap:butt;stroke-linejoin:miter;stroke-opacity:1"
       d="m 169.38323,387.62481 c 1.20272,1.9377 -2.3386,12.6953 -2.3386,12.6953 0,0 -0.0811,9.10335 0.93544,13.49711 2.03099,6.27414 8.01809,15.10073 11.82668,19.37704 5.87993,5.14495 13.15227,12.62849 27.18393,17.10526 13.80691,4.40506 12.43878,4.07586 12.43878,4.07586 l 0.4009,1.80407 c 23.67044,-1.14922 11.99521,4.49884 18.48746,16.22899 1.68186,-3.66843 0.27951,-19.87794 6.23497,-28.78529 l -35.14594,-52.65747 -30.53554,-7.01583 z"
       id="path4568"
       inkscape:connector-curvature="0"
       sodipodi:nodetypes="ccccsccccccc" />
    <path
       style="fill:#000000;fill-opacity:1;stroke:none;stroke-width:0.26458332px;stroke-linecap:butt;stroke-linejoin:miter;stroke-opacity:1"
       d="m 186.70583,464.80724 c -0.15249,-1.55368 -0.34487,-3.13129 -0.0668,-4.42665 1.39426,-1.66301 1.54794,-1.62589 2.47225,-2.13815 l 0.4176,0.98556 c -2.13502,1.89826 -1.92272,3.72081 -2.82303,5.57924 z"
       id="path4644"
       inkscape:connector-curvature="0"
       sodipodi:nodetypes="ccccc" />
    <path
       style="fill:#000000;fill-opacity:1;stroke:none;stroke-width:0.26458332px;stroke-linecap:butt;stroke-linejoin:miter;stroke-opacity:1"
       d="m 180.49907,467.91485 c -0.15249,-1.55368 -0.34487,-3.13129 -0.0668,-4.42665 1.39426,-1.66301 1.54794,-1.62589 2.47225,-2.13815 l 0.4176,0.98556 c -2.13502,1.89826 -1.92272,3.72081 -2.82303,5.57924 z"
       id="path4644-7"
       inkscape:connector-curvature="0"
       sodipodi:nodetypes="ccccc" />
    <path
       style="fill:#f28071;fill-opacity:1;stroke:none;stroke-width:0.26458332px;stroke-linecap:butt;stroke-linejoin:miter;stroke-opacity:1"
       d="m 182.65699,460.5692 c -2.99624,3.47462 -2.22471,6.83708 -2.07887,9.6384 1.6374,-6.78283 4.12175,-7.65622 6.70908,-8.97694 4.07549,-1.77613 9.52925,-4.7691 11.81176,-4.91369 4.59723,0.51752 5.10066,1.55842 6.2366,3.59078 1.02652,-3.3248 -2.11098,-4.70728 -6.61458,-6.33111 l 2.83482,-8.22098 -1.88988,-0.85045 c -1.85677,6.44071 -10.38809,11.02305 -17.00893,16.06399 z"
       id="path4640"
       inkscape:connector-curvature="0"
       sodipodi:nodetypes="ccccccccc" />
    <path
       style="fill:#000000;fill-opacity:1;stroke:none;stroke-width:0.26458332px;stroke-linecap:butt;stroke-linejoin:miter;stroke-opacity:1"
       d="m 180.49907,470.2772 c -0.15249,-1.55368 -0.34487,-3.13129 -0.0668,-4.42665 1.39426,-1.66301 1.54794,-1.62589 2.47225,-2.13815 l 0.4176,0.98556 c -2.13502,1.89826 -1.92272,3.72081 -2.82303,5.57924 z"
       id="path4644-1"
       inkscape:connector-curvature="0"
       sodipodi:nodetypes="ccccc" />
    <path
       style="fill:#297dc3;fill-opacity:1;stroke:none;stroke-width:0.26458332px;stroke-linecap:butt;stroke-linejoin:miter;stroke-opacity:1"
       d="m 162.23378,373.19225 c 2.42394,-7.75325 11.1322,-13.2028 20.17885,-16.37026 12.17213,-1.90033 23.10312,0.98494 26.9274,4.34313 1.75415,1.37871 8.46066,12.00642 11.35896,20.64658 3.6507,0.63881 28.05342,26.78898 27.25109,42.3931 4.65301,8.89772 8.04035,13.47637 7.78825,17.88684 -2.42267,0.58447 -7.14449,2.33663 -8.66415,2.72592 -0.75316,0.19295 0.94108,10.33983 0.0242,11.76284 -1.38936,0.85604 -1.55017,-10e-4 -3.11166,2.06401 -1.5615,2.06505 -4.33404,26.27964 -4.88535,30.47158 -2.083,1.7567 -0.3243,-9.82523 -3.3044,-11.56746 -0.52325,-3.8211 2.23979,-13.86606 2.17709,-14.5731 -0.36745,-4.14339 4.764,-18.92009 3.53642,-19.20395 -7.53211,-4.66075 -16.60262,-12.13185 -21.33918,-16.73147 -10.32514,-10.02661 -25.17581,-21.60774 -16.90849,-32.8014 -3.83591,-3.63596 -8.17348,0.30955 -11.12719,-0.41024 -18.49445,-4.5069 -23.8694,-8.85916 -30.95204,-7.52281 l -1.08796,-6.5652 c 0,0 1.0561,-4.52294 2.13816,-6.54811 z"
       id="path4545"
       inkscape:connector-curvature="0"
       sodipodi:nodetypes="ccccccsccccscccsccc" />
    <path
       style="fill:#dcdedb;fill-opacity:1;stroke:none;stroke-width:0.26458332px;stroke-linecap:butt;stroke-linejoin:miter;stroke-opacity:1"
       d="m 173.12501,384.95211 15.90254,7.21628 c -5.33939,0.49628 -3.66387,2.55142 -4.67722,4.00904 -7.80592,0.39298 -8.17942,-3.43476 -14.03165,-3.67495 -0.27327,-2.25561 0.10302,-3.50483 -0.93544,-4.87767 -1.31975,-1.31244 -4.28035,-0.9684 -9.54448,-0.93979 6.40723,-2.39822 10.34278,-1.17727 13.28625,-1.73291 z"
       id="path4566"
       inkscape:connector-curvature="0"
       sodipodi:nodetypes="ccccccc" />
    <path
       style="fill:#000000;fill-opacity:0.99065396;stroke:none;stroke-width:0.26458332px;stroke-linecap:butt;stroke-linejoin:miter;stroke-opacity:1"
       d="m 121.09551,392.58408 c 1.84934,-1.11978 11.74806,-6.47978 20.83455,-9.97247 8.89006,-3.51531 21.17797,-8.03782 20.97768,-7.74852 -0.46517,2.30654 0.4382,3.37137 0.66817,4.11385 11.72969,0.81289 9.09674,2.37557 12.29569,3.34644 -1.60918,0.31736 -4.54933,0.4583 -7.60538,2.64583 l -27.2811,5.5799 c -11.00421,1.96489 -14.58425,1.74621 -19.88961,2.03497 z"
       id="path4543"
       inkscape:connector-curvature="0"
       sodipodi:nodetypes="cccccccc" />
    <path
       style="fill:#37363a;fill-opacity:1;stroke:none;stroke-width:0.26458332px;stroke-linecap:butt;stroke-linejoin:miter;stroke-opacity:1"
       d="m 166.97781,379.00537 7.95127,-3.60814 6.00476,-1.2429 c -0.8324,0.61252 -1.30882,1.86368 -0.45892,2.98015 0.94624,1.05967 1.81622,0.49606 2.93997,0.66817 -0.18305,0.99586 -1.66711,2.36667 -2.73951,3.00679 -4.56586,0.40711 -9.13171,-0.63453 -13.69757,-1.80407 z"
       id="path4583"
       inkscape:connector-curvature="0"
       sodipodi:nodetypes="ccccccc" />
    <path
       style="opacity:1;vector-effect:none;fill:#000000;fill-opacity:0.77570095;fill-rule:nonzero;stroke:none;stroke-width:0.1;stroke-linecap:butt;stroke-linejoin:round;stroke-miterlimit:4;stroke-dasharray:none;stroke-dashoffset:0;stroke-opacity:1;paint-order:stroke fill markers"
       d="m 187.05097,375.12295 c -0.15343,1.36131 -2.01944,3.23642 -4.39397,3.23642 -2.37454,0 -3.54353,-1.25228 -3.54353,-2.62221 0,-1.36992 2.27231,-2.38889 4.63021,-2.66945 2.31039,-0.27491 3.62787,-0.7891 3.30729,2.05524 z"
       id="path4578"
       inkscape:connector-curvature="0"
       sodipodi:nodetypes="sssss" />
    <path
       style="fill:#979395;fill-opacity:1;stroke:none;stroke-width:0.26458332px;stroke-linecap:butt;stroke-linejoin:miter;stroke-opacity:1"
       d="m 181.50081,374.55593 c 1.12999,0.30264 2.53133,0.68333 5.49084,-0.57032 -0.1435,-1.64361 -2.31662,-1.34801 -2.94472,-1.42135 -0.68464,0.0609 -4.29712,1.30268 -2.54612,1.99167 z"
       id="path4576"
       inkscape:connector-curvature="0"
       sodipodi:nodetypes="cccc" />
    <path
       style="fill:#0f0a01;fill-opacity:0;stroke:none;stroke-width:0.26458332px;stroke-linecap:butt;stroke-linejoin:miter;stroke-opacity:1"
       d="m 182.47944,373.12544 c 1.97664,-0.99564 4.10928,-0.50669 4.54359,1.26953 0.4343,1.77622 -1.82474,3.93215 -3.74178,4.07586 -1.6449,0.1233 -4.03294,-1.29165 -4.07586,-2.80633 -0.0429,-1.51469 1.29742,-1.54343 3.27405,-2.53906 z"
       id="path4574"
       inkscape:connector-curvature="0"
       sodipodi:nodetypes="zzszz" />
    <path
       style="fill:#dcdedb;fill-opacity:1;stroke:none;stroke-width:0.26458332px;stroke-linecap:butt;stroke-linejoin:miter;stroke-opacity:1"
       d="m 176.19861,375.93177 2.73951,-0.26727 c 0.0601,2.68866 -3.03213,2.14822 -2.73951,3.94222 l -2.33861,-0.86863 2.33861,-2.80632"
       id="path4572"
       inkscape:connector-curvature="0"
       sodipodi:nodetypes="ccccc" />
    <path
       style="fill:#d37b1e;fill-opacity:1;stroke:none;stroke-width:0.26458332px;stroke-linecap:butt;stroke-linejoin:miter;stroke-opacity:1"
       d="m 166.97781,379.00537 c 0.16389,-0.58295 -0.39971,-1.01754 0.60136,-2.93997 1.20483,-0.22695 2.5048,0.22443 4.20949,-1.00226 0.91049,0.32482 0.58989,0.4855 3.94223,1.1359 -2.0708,1.41834 -4.05136,0.25996 -4.07586,2.73951 z"
       id="path4570"
       inkscape:connector-curvature="0"
       sodipodi:nodetypes="cccccc" />
    <path
       style="fill:#d37b1e;fill-opacity:1;stroke:none;stroke-width:0.26458332px;stroke-linecap:butt;stroke-linejoin:miter;stroke-opacity:1"
       d="m 180.67538,380.80944 c 5.62291,-6.25975 23.61149,-10.33061 23.99872,-4.52894 l -0.94494,3.49628 c -5.25646,3.76581 -4.31151,4.51309 -9.26042,4.06325 -3.88415,-3.74489 -6.02703,-3.34425 -13.79336,-3.03059 z"
       id="path4585"
       inkscape:connector-curvature="0"
       sodipodi:nodetypes="ccccc" />
    <path
       style="fill:#dcdedb;fill-opacity:1;stroke:none;stroke-width:0.26458332px;stroke-linecap:butt;stroke-linejoin:miter;stroke-opacity:1"
       d="m 196.64211,383.08408 7.08705,-3.3073 5.66965,0.18899 c 4.68531,1.43182 8.86633,2.4154 11.30018,1.84593 l 0.79505,3.06776 c -4.74209,1.54799 -5.41798,-0.006 -6.42559,4.63021 -5.55916,-2.66517 -10.8534,-2.3856 -18.42634,-6.42559 z"
       id="path4587"
       inkscape:connector-curvature="0"
       sodipodi:nodetypes="ccccccc" />
    <path
       style="fill:#000000;fill-opacity:1;stroke:none;stroke-width:0.26458332px;stroke-linecap:butt;stroke-linejoin:miter;stroke-opacity:1"
       d="m 205.33556,459.90775 c 0.15249,-1.55368 0.34487,-1.14691 0.0668,-2.44227 -1.39426,-1.66301 -1.26446,-1.48415 -2.18877,-1.99641 l 0.0549,2.07224 c 2.13502,1.89826 1.16677,0.50801 2.06708,2.36644 z"
       id="path4644-1-6-7"
       inkscape:connector-curvature="0"
       sodipodi:nodetypes="cccccc" />
    <path
       style="fill:#000000;fill-opacity:1;stroke:none;stroke-width:0.26458332px;stroke-linecap:butt;stroke-linejoin:miter;stroke-opacity:1"
       d="m 226.04404,460.70649 c 0.15249,-1.55368 0.34487,-1.14691 0.0668,-2.44227 -1.39426,-1.66301 -1.26446,-1.48415 -2.18877,-1.99641 l 0.0549,2.07224 c 2.13502,1.89826 1.16677,0.50801 2.06708,2.36644 z"
       id="path4644-1-6-7-4"
       inkscape:connector-curvature="0"
       sodipodi:nodetypes="cccccc" />
    <g
       id="g5138">
      <path
         sodipodi:nodetypes="ccccc"
         inkscape:connector-curvature="0"
         id="path4644-73-7"
         d="m 27.684243,450.52085 c -0.15249,-1.55368 -0.344879,-3.13129 -0.0668,-4.42665 1.394259,-1.66301 1.547929,-1.62589 2.472251,-2.13815 l 0.417599,0.98556 c -2.13502,1.89826 -1.922719,3.72081 -2.82304,5.57924 z"
         style="fill:#000000;fill-opacity:1;stroke:none;stroke-width:0.26458332px;stroke-linecap:butt;stroke-linejoin:miter;stroke-opacity:1" />
      <path
         sodipodi:nodetypes="ccccc"
         inkscape:connector-curvature="0"
         id="path4644-7-8-2"
         d="m 21.477483,453.62846 c -0.15249,-1.55368 -0.344868,-3.13129 -0.0668,-4.42665 1.394259,-1.66301 1.547939,-1.62588 2.472251,-2.13815 l 0.417599,0.98556 c -2.13502,1.89826 -1.922721,3.72081 -2.82303,5.57924 z"
         style="fill:#000000;fill-opacity:1;stroke:none;stroke-width:0.26458332px;stroke-linecap:butt;stroke-linejoin:miter;stroke-opacity:1" />
      <path
         sodipodi:nodetypes="ccccccccc"
         inkscape:connector-curvature="0"
         id="path4640-7-3"
         d="m 23.635404,446.28281 c -2.99624,3.47462 -2.22471,6.83708 -2.078871,9.6384 1.6374,-6.78283 4.12175,-7.65622 6.709082,-8.97694 4.075488,-1.77613 9.524709,-4.926 11.811759,-4.91369 4.12476,0.75376 5.49666,1.71939 6.2366,3.59078 0.66397,-3.14472 -2.11098,-4.70728 -6.614581,-6.33111 l 2.834821,-8.22098 -1.88988,-0.85045 c -1.856769,6.44071 -10.38809,11.02305 -17.00893,16.06399 z"
         style="fill:#f28071;fill-opacity:1;stroke:none;stroke-width:0.26458332px;stroke-linecap:butt;stroke-linejoin:miter;stroke-opacity:1" />
      <path
         sodipodi:nodetypes="ccccc"
         inkscape:connector-curvature="0"
         id="path4644-1-6-6"
         d="m 21.477483,455.99081 c -0.15249,-1.55368 -0.344868,-3.13129 -0.0668,-4.42665 1.394259,-1.66301 1.547939,-1.62589 2.472251,-2.13815 l 0.417599,0.98556 c -2.13502,1.89826 -1.922721,3.72081 -2.82303,5.57924 z"
         style="fill:#000000;fill-opacity:1;stroke:none;stroke-width:0.26458332px;stroke-linecap:butt;stroke-linejoin:miter;stroke-opacity:1" />
      <path
         sodipodi:nodetypes="ccccsccccccc"
         inkscape:connector-curvature="0"
         id="path4568-1"
         d="m -10.346833,372.53969 c 1.2027157,1.9377 -2.338604,12.6953 -2.338604,12.6953 0,0 -0.08112,9.10335 0.935442,13.49711 2.0309837,6.27413 8.0180867,15.10073 11.82667571,19.37704 5.87993099,5.14494 13.15227429,12.62849 27.18393229,17.10525 13.806911,4.40506 12.43878,4.07586 12.43878,4.07586 l 0.400902,1.80407 c 23.670439,-1.14922 11.995209,4.49884 18.487459,16.22899 1.68186,-3.66843 0.27951,-19.87794 6.23497,-28.78529 L 29.676783,375.88055 -0.85876129,368.86473 Z"
         style="fill:#d37b1e;fill-opacity:1;stroke:none;stroke-width:0.26458332px;stroke-linecap:butt;stroke-linejoin:miter;stroke-opacity:1" />
      <path
         sodipodi:nodetypes="ccccc"
         inkscape:connector-curvature="0"
         id="path4644-5"
         d="m 6.9757577,449.72211 c -0.15249,-1.55368 -0.344868,-3.13129 -0.0668,-4.42665 1.394259,-1.66301 1.547939,-1.62589 2.47225,-2.13815 l 0.417606,0.98556 c -2.135027,1.89826 -1.922728,3.72081 -2.823036,5.57924 z"
         style="fill:#000000;fill-opacity:1;stroke:none;stroke-width:0.26458332px;stroke-linecap:butt;stroke-linejoin:miter;stroke-opacity:1" />
      <path
         sodipodi:nodetypes="ccccc"
         inkscape:connector-curvature="0"
         id="path4644-7-1"
         d="m 0.76900271,452.82972 c -0.15249,-1.55368 -0.344871,-3.13129 -0.0668,-4.42665 1.39426199,-1.66301 1.54794299,-1.62589 2.47225099,-2.13815 l 0.4176,0.98556 c -2.135018,1.89826 -1.922719,3.72081 -2.82302999,5.57924 z"
         style="fill:#000000;fill-opacity:1;stroke:none;stroke-width:0.26458332px;stroke-linecap:butt;stroke-linejoin:miter;stroke-opacity:1" />
      <path
         sodipodi:nodetypes="ccccccccc"
         inkscape:connector-curvature="0"
         id="path4640-9"
         d="m 2.9269237,445.48407 c -2.99624499,3.47462 -2.22471499,6.83708 -2.07886599,9.6384 1.63739499,-6.78283 4.12174799,-7.65622 6.70907699,-8.97694 4.0754883,-1.77613 9.5292493,-4.7691 11.8117593,-4.91369 4.597231,0.51752 5.100659,1.55842 6.2366,3.59078 1.02652,-3.3248 -2.110981,-4.70728 -6.614581,-6.33111 l 2.83482,-8.22098 -1.889879,-0.85045 c -1.856769,6.44071 -10.3880893,11.02305 -17.0089303,16.06399 z"
         style="fill:#f28071;fill-opacity:1;stroke:none;stroke-width:0.26458332px;stroke-linecap:butt;stroke-linejoin:miter;stroke-opacity:1" />
      <path
         sodipodi:nodetypes="ccccc"
         inkscape:connector-curvature="0"
         id="path4644-1-3"
         d="m 0.76900071,455.19207 c -0.15249,-1.55368 -0.344871,-3.13129 -0.0668,-4.42665 1.39426099,-1.66301 1.54794199,-1.62589 2.47225099,-2.13815 l 0.417599,0.98556 c -2.13502,1.89826 -1.922719,3.72081 -2.82302999,5.57924 z"
         style="fill:#000000;fill-opacity:1;stroke:none;stroke-width:0.26458332px;stroke-linecap:butt;stroke-linejoin:miter;stroke-opacity:1" />
      <path
         sodipodi:nodetypes="ccccccsccccscccsccc"
         inkscape:connector-curvature="0"
         id="path4545-37"
         d="m -17.496287,358.10713 c 2.42394,-7.75325 11.1321977,-13.2028 20.1788467,-16.37026 12.1721323,-1.90033 23.1031233,0.98494 26.9274053,4.34313 1.754148,1.37871 8.460658,12.00642 11.35896,20.64657 3.650699,0.63882 28.053419,26.78899 27.251089,42.39311 4.65301,8.89772 8.04035,13.47636 7.78825,17.88683 -2.42267,0.58448 -7.14449,2.33663 -8.66415,2.72593 -0.75316,0.19294 0.94108,10.33982 0.0242,11.76283 -1.38936,0.85604 -1.55017,-0.001 -3.11166,2.06401 -1.5615,2.06505 -4.33404,26.27964 -4.88535,30.47158 -2.083,1.7567 -0.3243,-9.82523 -3.3044,-11.56746 -0.52325,-3.8211 2.23979,-13.86606 2.17709,-14.5731 -0.36745,-4.14339 4.764,-18.92009 3.53642,-19.20394 -7.5321,-4.66075 -16.60261,-12.13186 -21.339169,-16.73147 -10.32514,-10.02662 -25.175811,-21.60774 -16.908492,-32.8014 -3.835908,-3.63596 -8.173479,0.30955 -11.127189,-0.41024 -18.4944653,-4.50691 -23.86941,-8.85916 -30.952051,-7.52282 l -1.087959,-6.5652 c 0,0 1.056097,-4.52293 2.138159,-6.5481 z"
         style="fill:#297dc3;fill-opacity:1;stroke:none;stroke-width:0.26458332px;stroke-linecap:butt;stroke-linejoin:miter;stroke-opacity:1" />
      <path
         sodipodi:nodetypes="ccccccc"
         inkscape:connector-curvature="0"
         id="path4566-88"
         d="m -6.6050563,369.86699 15.902538,7.21628 c -5.33939,0.49628 -3.663871,2.55142 -4.677217,4.00904 -7.80592,0.39298 -8.179424,-3.43476 -14.031653,-3.67496 -0.273272,-2.2556 0.103026,-3.50482 -0.9354417,-4.87766 -1.31975,-1.31244 -4.280342,-0.9684 -9.544479,-0.9398 6.407227,-2.39821 10.3427767,-1.17727 13.2862527,-1.7329 z"
         style="fill:#dcdedb;fill-opacity:1;stroke:none;stroke-width:0.26458332px;stroke-linecap:butt;stroke-linejoin:miter;stroke-opacity:1" />
      <path
         sodipodi:nodetypes="cccccccc"
         inkscape:connector-curvature="0"
         id="path4543-8"
         d="m -58.634556,377.49896 c 1.84934,-1.11978 11.748061,-6.47978 20.834546,-9.97248 8.890069,-3.5153 21.177969,-8.03782 20.97768,-7.74851 -0.465164,2.30654 0.438203,3.37136 0.668173,4.11385 11.7296907,0.81289 9.0967377,2.37557 12.2956907,3.34643 -1.60918,0.31737 -4.549331,0.45831 -7.6053797,2.64584 l -27.281102,5.57989 c -11.004214,1.9649 -14.584249,1.74622 -19.889608,2.03498 z"
         style="fill:#000000;fill-opacity:0.99065396;stroke:none;stroke-width:0.26458332px;stroke-linecap:butt;stroke-linejoin:miter;stroke-opacity:1" />
      <path
         sodipodi:nodetypes="ccccccc"
         inkscape:connector-curvature="0"
         id="path4583-78"
         d="m -12.752255,363.92024 7.9512687,-3.60813 6.004763,-1.2429 c -0.83239999,0.61252 -1.30882699,1.86368 -0.45892199,2.98014 0.94623499,1.05967 1.81622199,0.49607 2.93996799,0.66818 -0.183052,0.99586 -1.667108,2.36667 -2.73951399,3.00678 -4.56585401,0.40712 -9.13171101,-0.63452 -13.69756371,-1.80407 z"
         style="fill:#37363a;fill-opacity:1;stroke:none;stroke-width:0.26458332px;stroke-linecap:butt;stroke-linejoin:miter;stroke-opacity:1" />
      <path
         sodipodi:nodetypes="sssss"
         inkscape:connector-curvature="0"
         id="path4578-77"
         d="m 7.3209017,360.03783 c -0.15343,1.36131 -2.019435,3.23642 -4.393973,3.23642 -2.37453499,0 -3.54352499,-1.25228 -3.54352499,-2.62221 0,-1.36992 2.27230499,-2.38889 4.63020899,-2.66946 2.310389,-0.2749 3.627868,-0.78909 3.307289,2.05525 z"
         style="opacity:1;vector-effect:none;fill:#000000;fill-opacity:0.77570095;fill-rule:nonzero;stroke:none;stroke-width:0.1;stroke-linecap:butt;stroke-linejoin:round;stroke-miterlimit:4;stroke-dasharray:none;stroke-dashoffset:0;stroke-opacity:1;paint-order:stroke fill markers" />
      <path
         sodipodi:nodetypes="cccc"
         inkscape:connector-curvature="0"
         id="path4576-5"
         d="m 1.7707417,359.47081 c 1.129991,0.30264 2.531335,0.68333 5.490837,-0.57032 -0.143491,-1.64361 -2.316617,-1.34801 -2.944714,-1.42135 -0.684641,0.0609 -4.29712499,1.30268 -2.546123,1.99167 z"
         style="fill:#979395;fill-opacity:1;stroke:none;stroke-width:0.26458332px;stroke-linecap:butt;stroke-linejoin:miter;stroke-opacity:1" />
      <path
         sodipodi:nodetypes="zzszz"
         inkscape:connector-curvature="0"
         id="path4574-9"
         d="m 2.7493777,358.04031 c 1.976636,-0.99563 4.109275,-0.50669 4.543581,1.26953 0.434308,1.77622 -1.824739,3.93216 -3.741772,4.07586 -1.644901,0.12331 -4.03294799,-1.29164 -4.07586099,-2.80633 -0.04291,-1.51468 1.297413,-1.54342 3.27405199,-2.53906 z"
         style="fill:#0f0a01;fill-opacity:0;stroke:none;stroke-width:0.26458332px;stroke-linecap:butt;stroke-linejoin:miter;stroke-opacity:1" />
      <path
         sodipodi:nodetypes="ccccc"
         inkscape:connector-curvature="0"
         id="path4572-5"
         d="m -3.5314553,360.84664 2.73951201,-0.26727 c 0.06009,2.68867 -3.03213801,2.14823 -2.73951201,3.94223 l -2.338609,-0.86863 2.338609,-2.80633"
         style="fill:#dcdedb;fill-opacity:1;stroke:none;stroke-width:0.26458332px;stroke-linecap:butt;stroke-linejoin:miter;stroke-opacity:1" />
      <path
         sodipodi:nodetypes="cccccc"
         inkscape:connector-curvature="0"
         id="path4570-72"
         d="m -12.752255,363.92024 c 0.163888,-0.58294 -0.399706,-1.01754 0.601355,-2.93996 1.204828,-0.22695 2.5048027,0.22442 4.2094967,-1.00226 0.910487,0.32482 0.589891,0.48549 3.942226,1.13589 -2.070801,1.41835 -4.051361,0.25997 -4.075861,2.73952 z"
         style="fill:#d37b1e;fill-opacity:1;stroke:none;stroke-width:0.26458332px;stroke-linecap:butt;stroke-linejoin:miter;stroke-opacity:1" />
      <path
         sodipodi:nodetypes="ccccc"
         inkscape:connector-curvature="0"
         id="path4585-0"
         d="M 0.94530871,365.72431 C 6.5682227,359.46457 24.556805,355.39371 24.944033,361.19538 l -0.944938,3.49628 c -5.256462,3.76581 -4.31151,4.51309 -9.260422,4.06325 -3.88415,-3.74489 -6.0270263,-3.34425 -13.79336429,-3.0306 z"
         style="fill:#d37b1e;fill-opacity:1;stroke:none;stroke-width:0.26458332px;stroke-linecap:butt;stroke-linejoin:miter;stroke-opacity:1" />
      <path
         sodipodi:nodetypes="ccccccc"
         inkscape:connector-curvature="0"
         id="path4587-3"
         d="m 16.912045,367.99895 7.08705,-3.30729 5.66965,0.18899 c 4.685308,1.43182 8.866328,2.41539 11.30018,1.84592 l 0.795049,3.06777 c -4.74209,1.54798 -5.417979,-0.006 -6.425589,4.63021 -5.559161,-2.66517 -10.853402,-2.3856 -18.42634,-6.4256 z"
         style="fill:#dcdedb;fill-opacity:1;stroke:none;stroke-width:0.26458332px;stroke-linecap:butt;stroke-linejoin:miter;stroke-opacity:1" />
      <path
         sodipodi:nodetypes="cccccc"
         inkscape:connector-curvature="0"
         id="path4644-1-6-7-5"
         d="m 25.605494,444.82262 c 0.15249,-1.55368 0.344871,-1.14691 0.0668,-2.44226 -1.394259,-1.66302 -1.264459,-1.48416 -2.188768,-1.99642 l 0.0549,2.07224 c 2.135021,1.89826 1.16677,0.50801 2.067081,2.36644 z"
         style="fill:#000000;fill-opacity:1;stroke:none;stroke-width:0.26458332px;stroke-linecap:butt;stroke-linejoin:miter;stroke-opacity:1" />
      <path
         sodipodi:nodetypes="cccccc"
         inkscape:connector-curvature="0"
         id="path4644-1-6-7-4-4"
         d="m 46.313974,445.62136 c 0.15249,-1.55368 0.34487,-1.14691 0.0668,-2.44227 -1.39426,-1.66301 -1.26446,-1.48415 -2.18877,-1.99641 l 0.0549,2.07224 c 2.13502,1.89826 1.16677,0.50801 2.06708,2.36644 z"
         style="fill:#000000;fill-opacity:1;stroke:none;stroke-width:0.26458332px;stroke-linecap:butt;stroke-linejoin:miter;stroke-opacity:1" />
    </g>
    <path
       style="fill:#000000;fill-opacity:1;stroke:none;stroke-width:0.19733544px;stroke-linecap:butt;stroke-linejoin:miter;stroke-opacity:1"
       d="m 64.347961,288.18566 c -0.114,-1.15606 -0.25783,-2.32992 -0.04994,-3.29377 1.04234,-1.23742 1.157222,-1.2098 1.848237,-1.59096 l 0.312195,0.73333 c -1.596126,1.41246 -1.437412,2.76859 -2.110485,4.1514 z"
       id="path4644-73-7-1"
       inkscape:connector-curvature="0"
       sodipodi:nodetypes="ccccc" />
    <path
       style="fill:#000000;fill-opacity:1;stroke:none;stroke-width:0.19733544px;stroke-linecap:butt;stroke-linejoin:miter;stroke-opacity:1"
       d="m 59.70783,290.49798 c -0.114,-1.15607 -0.257822,-2.32993 -0.04993,-3.29379 1.042339,-1.23741 1.15723,-1.20978 1.848237,-1.59095 l 0.312195,0.73334 c -1.596126,1.41245 -1.437412,2.76857 -2.110478,4.1514 z"
       id="path4644-7-8-2-9"
       inkscape:connector-curvature="0"
       sodipodi:nodetypes="ccccc" />
    <path
       style="fill:#f28071;fill-opacity:1;stroke:none;stroke-width:0.19733544px;stroke-linecap:butt;stroke-linejoin:miter;stroke-opacity:1"
       d="m 61.321076,285.03223 c -2.239968,2.58539 -1.663177,5.08733 -1.554148,7.17174 1.224108,-5.04698 3.081391,-5.69684 5.015662,-6.67956 3.046808,-1.32159 7.120607,-3.66534 8.83039,-3.65619 3.083642,0.56086 4.109265,1.27937 4.662439,2.67183 0.49638,-2.33992 -1.578154,-3.50258 -4.945015,-4.71084 l 2.119292,-6.11708 -1.412861,-0.6328 c -1.388101,4.79241 -7.766065,8.20203 -12.715759,11.9529 z"
       id="path4640-7-3-3"
       inkscape:connector-curvature="0"
       sodipodi:nodetypes="ccccccccc" />
    <path
       style="fill:#000000;fill-opacity:1;stroke:none;stroke-width:0.19733544px;stroke-linecap:butt;stroke-linejoin:miter;stroke-opacity:1"
       d="m 59.70783,292.25576 c -0.114,-1.15606 -0.257822,-2.32993 -0.04993,-3.29379 1.042339,-1.23741 1.15723,-1.20979 1.848237,-1.59095 l 0.312195,0.73333 c -1.596126,1.41246 -1.437412,2.76859 -2.110478,4.15141 z"
       id="path4644-1-6-6-3"
       inkscape:connector-curvature="0"
       sodipodi:nodetypes="ccccc" />
    <path
       style="fill:#fb7f00;fill-opacity:1;stroke:none;stroke-width:0.19733544px;stroke-linecap:butt;stroke-linejoin:miter;stroke-opacity:1"
       d="m 35.916194,230.16141 c 0.899138,1.4418 -1.748329,9.44633 -1.748329,9.44633 0,0 -0.06063,6.77362 0.699329,10.04293 1.518354,4.66847 5.994268,11.23616 8.841544,14.41809 4.395795,3.82824 9.832548,9.3966 20.322521,12.72768 10.32195,3.27771 9.299145,3.03277 9.299145,3.03277 l 0.299711,1.34237 c 17.695857,-0.85512 8.967536,3.34748 13.821097,12.07567 1.257347,-2.72962 0.20896,-14.79079 4.661221,-21.41857 L 65.837571,232.64728 43.00941,227.42695 Z"
       id="path4568-1-5"
       inkscape:connector-curvature="0"
       sodipodi:nodetypes="ccccsccccccc" />
    <path
       style="fill:#000000;fill-opacity:1;stroke:none;stroke-width:0.19733544px;stroke-linecap:butt;stroke-linejoin:miter;stroke-opacity:1"
       d="m 48.866443,287.59134 c -0.114,-1.15607 -0.257822,-2.32993 -0.04993,-3.29378 1.042339,-1.23742 1.157229,-1.2098 1.848237,-1.59096 l 0.312194,0.73334 c -1.596126,1.41245 -1.437419,2.76858 -2.110477,4.1514 z"
       id="path4644-5-7"
       inkscape:connector-curvature="0"
       sodipodi:nodetypes="ccccc" />
    <path
       style="fill:#000000;fill-opacity:1;stroke:none;stroke-width:0.19733544px;stroke-linecap:butt;stroke-linejoin:miter;stroke-opacity:1"
       d="m 44.226312,289.90365 c -0.114,-1.15606 -0.257822,-2.32993 -0.04993,-3.29379 1.042339,-1.2374 1.157229,-1.20979 1.848237,-1.59095 l 0.312194,0.73333 c -1.596126,1.41246 -1.437411,2.76859 -2.110477,4.15141 z"
       id="path4644-7-1-8"
       inkscape:connector-curvature="0"
       sodipodi:nodetypes="ccccc" />
    <path
       style="fill:#f28071;fill-opacity:1;stroke:none;stroke-width:0.19733544px;stroke-linecap:butt;stroke-linejoin:miter;stroke-opacity:1"
       d="m 45.839558,284.43789 c -2.239969,2.5854 -1.663178,5.08734 -1.554141,7.17175 1.224101,-5.04697 3.081384,-5.69684 5.015654,-6.67956 3.046809,-1.32158 7.124003,-3.5486 8.830392,-3.65618 3.436857,0.38507 3.813218,1.15959 4.662439,2.67182 0.767419,-2.47391 -1.578154,-3.50258 -4.945014,-4.71084 l 2.119292,-6.11707 -1.412862,-0.6328 c -1.388108,4.7924 -7.766066,8.20203 -12.71576,11.95288 z"
       id="path4640-9-1"
       inkscape:connector-curvature="0"
       sodipodi:nodetypes="ccccccccc" />
    <path
       style="fill:#000000;fill-opacity:1;stroke:none;stroke-width:0.19733544px;stroke-linecap:butt;stroke-linejoin:miter;stroke-opacity:1"
       d="m 44.226312,291.66143 c -0.114,-1.15607 -0.257822,-2.32993 -0.04993,-3.29378 1.042339,-1.23742 1.157229,-1.2098 1.848237,-1.59096 l 0.312194,0.73334 c -1.596126,1.41246 -1.437411,2.76858 -2.110477,4.1514 z"
       id="path4644-1-3-7"
       inkscape:connector-curvature="0"
       sodipodi:nodetypes="ccccc" />
    <path
       style="fill:#148cf6;fill-opacity:1;stroke:none;stroke-width:0.19733544px;stroke-linecap:butt;stroke-linejoin:miter;stroke-opacity:1"
       d="m 30.571307,219.42243 c 1.81212,-5.76905 8.322356,-9.82396 15.085569,-12.1808 9.099802,-1.414 17.271735,0.73287 20.130741,3.23164 1.311389,1.02587 6.325131,8.93375 8.491887,15.36272 2.72923,0.47533 20.972536,19.93316 20.37272,31.54387 3.478558,6.62063 6.010906,10.02751 5.822446,13.30925 -1.811176,0.4349 -5.341176,1.73864 -6.477263,2.02831 -0.563057,0.14356 0.703545,7.69365 0.0181,8.75249 -1.038676,0.63696 -1.158896,-7.5e-4 -2.326255,1.53579 -1.167367,1.53656 -3.240099,19.55417 -3.652255,22.6733 -1.557236,1.30713 -0.242444,-7.31075 -2.470347,-8.60712 -0.391177,-2.8432 1.674453,-10.31746 1.627578,-10.84356 -0.274703,-3.08301 3.561534,-14.07806 2.643804,-14.28926 -5.630939,-3.46798 -12.41199,-9.02709 -15.953009,-12.44956 -7.719004,-7.46062 -18.821263,-16.0779 -12.640671,-24.4069 -2.8677,-2.70543 -6.110438,0.23033 -8.31861,-0.30523 -13.826341,-3.35351 -17.844616,-6.59193 -23.139549,-5.5976 l -0.813351,-4.88503 c 0,0 0.789532,-3.36542 1.598473,-4.87231 z"
       id="path4545-37-9"
       inkscape:connector-curvature="0"
       sodipodi:nodetypes="ccccccsccccscccsccc" />
    <path
       style="fill:#eeeeee;fill-opacity:1;stroke:none;stroke-width:0.19733544px;stroke-linecap:butt;stroke-linejoin:miter;stroke-opacity:1"
       d="m 38.713515,228.17271 11.88863,5.36949 c -3.991692,0.36927 -2.739085,1.89847 -3.496658,2.98305 -5.835652,0.29241 -6.114878,-2.55574 -10.489965,-2.73447 -0.204295,-1.67834 0.07702,-2.60786 -0.699328,-3.62937 -0.986636,-0.97655 -3.199952,-0.72056 -7.135388,-0.69929 4.790002,-1.78446 7.732192,-0.87597 9.932709,-1.28941 z"
       id="path4566-88-6"
       inkscape:connector-curvature="0"
       sodipodi:nodetypes="ccccccc" />
    <path
       style="fill:#323232;fill-opacity:0.99065393;stroke:none;stroke-width:0.19733544px;stroke-linecap:butt;stroke-linejoin:miter;stroke-opacity:1"
       d="m -0.18337281,233.85151 c 1.38255381,-0.8332 8.78276871,-4.82148 15.57575881,-7.42033 6.646155,-2.61566 15.832504,-5.98078 15.682769,-5.76551 -0.347758,1.71625 0.327595,2.50856 0.499519,3.06104 8.769035,0.60485 6.80066,1.76761 9.192173,2.49001 -1.203012,0.23615 -3.401047,0.34102 -5.68573,1.96872 l -20.395162,4.15189 c -8.2266711,1.46204 -10.9030844,1.29931 -14.86932781,1.51418 z"
       id="path4543-8-7"
       inkscape:connector-curvature="0"
       sodipodi:nodetypes="cccccccc" />
    <path
       style="fill:#817f80;fill-opacity:1;stroke:none;stroke-width:0.19733544px;stroke-linecap:butt;stroke-linejoin:miter;stroke-opacity:1"
       d="m 34.117911,223.74785 5.944315,-2.68474 4.489124,-0.92482 c -0.622296,0.45576 -0.978472,1.38673 -0.343092,2.21746 0.707402,0.78848 1.3578,0.36912 2.197901,0.49719 -0.136847,0.74099 -1.24632,1.76099 -2.048039,2.23728 -3.413406,0.30294 -6.826803,-0.47213 -10.240209,-1.34237 z"
       id="path4583-78-7"
       inkscape:connector-curvature="0"
       sodipodi:nodetypes="ccccccc" />
    <path
       style="opacity:1;vector-effect:none;fill:#000000;fill-opacity:0.77570095;fill-rule:nonzero;stroke:none;stroke-width:0.09378387;stroke-linecap:butt;stroke-linejoin:round;stroke-miterlimit:4;stroke-dasharray:none;stroke-dashoffset:0;stroke-opacity:1;paint-order:stroke fill markers"
       d="m 50.652091,220.23909 c -0.144232,1.27368 -1.898365,3.0281 -4.130549,3.0281 -2.232186,0 -3.331095,-1.17169 -3.331095,-2.45343 0,-1.28176 2.136084,-2.23512 4.352627,-2.49764 2.171882,-0.2572 3.410378,-0.73831 3.109017,1.92297 z"
       id="path4578-77-4"
       inkscape:connector-curvature="0"
       sodipodi:nodetypes="sssss" />
    <path
       style="fill:#afaeae;fill-opacity:1;stroke:none;stroke-width:0.19733544px;stroke-linecap:butt;stroke-linejoin:miter;stroke-opacity:1"
       d="m 46.167174,219.23974 c 0.844773,0.22519 1.892412,0.50846 4.104914,-0.42435 -0.107272,-1.22298 -1.731889,-1.00303 -2.201453,-1.05761 -0.511832,0.0453 -3.212497,0.96931 -1.903461,1.48196 z"
       id="path4576-5-6"
       inkscape:connector-curvature="0"
       sodipodi:nodetypes="cccc" />
    <path
       style="fill:#0f0a01;fill-opacity:0;stroke:none;stroke-width:0.19733544px;stroke-linecap:butt;stroke-linejoin:miter;stroke-opacity:1"
       d="m 45.70683,219.37271 c 1.477715,-0.74083 3.072062,-0.37703 3.396749,0.94463 0.324687,1.32166 -1.364162,2.92585 -2.797321,3.03277 -1.229724,0.0917 -3.015006,-0.96109 -3.047093,-2.08815 -0.03207,-1.12703 0.969943,-1.14842 2.447665,-1.88925 z"
       id="path4574-9-9"
       inkscape:connector-curvature="0"
       sodipodi:nodetypes="zzszz" />
    <path
       style="fill:#eeeeee;fill-opacity:1;stroke:none;stroke-width:0.19733544px;stroke-linecap:butt;stroke-linejoin:miter;stroke-opacity:1"
       d="m 41.011317,221.46084 2.048047,-0.19888 c 0.04493,2.0006 -2.266808,1.59847 -2.048047,2.93335 l -1.748328,-0.64634 1.748328,-2.08813"
       id="path4572-5-7"
       inkscape:connector-curvature="0"
       sodipodi:nodetypes="ccccc" />
    <path
       style="fill:#fb7f00;fill-opacity:1;stroke:none;stroke-width:0.19733544px;stroke-linecap:butt;stroke-linejoin:miter;stroke-opacity:1"
       d="m 34.117911,223.74785 c 0.122523,-0.43375 -0.298813,-0.75713 0.449573,-2.18756 0.900722,-0.16888 1.872571,0.16697 3.146992,-0.74577 0.68067,0.24169 0.440998,0.36124 2.947177,0.84519 -1.548116,1.05537 -3.028769,0.19345 -3.047084,2.03843 z"
       id="path4570-72-1"
       inkscape:connector-curvature="0"
       sodipodi:nodetypes="cccccc" />
    <path
       style="fill:#fb7f00;fill-opacity:1;stroke:none;stroke-width:0.19733544px;stroke-linecap:butt;stroke-linejoin:miter;stroke-opacity:1"
       d="m 44.35812,225.09022 c 4.203649,-4.65775 17.651789,-7.6868 17.941279,-3.36988 l -0.706431,2.60151 c -3.929693,2.80207 -3.223255,3.35809 -6.923026,3.02337 -2.903765,-2.78648 -4.50576,-2.48837 -10.311822,-2.255 z"
       id="path4585-0-1"
       inkscape:connector-curvature="0"
       sodipodi:nodetypes="ccccc" />
    <path
       style="fill:#eeeeee;fill-opacity:1;stroke:none;stroke-width:0.19733544px;stroke-linecap:butt;stroke-linejoin:miter;stroke-opacity:1"
       d="m 56.294739,226.78274 5.298229,-2.46089 4.238592,0.14063 c 3.502706,1.06538 6.628407,1.79724 8.447944,1.37351 l 0.594366,2.28266 c -3.545154,1.15183 -4.050444,-0.004 -4.803726,3.44525 -4.15599,-1.9831 -8.113927,-1.77508 -13.775405,-4.78116 z"
       id="path4587-3-6"
       inkscape:connector-curvature="0"
       sodipodi:nodetypes="ccccccc" />
    <path
       style="fill:#000000;fill-opacity:1;stroke:none;stroke-width:0.19733544px;stroke-linecap:butt;stroke-linejoin:miter;stroke-opacity:1"
       d="m 62.793902,283.94572 c 0.114001,-1.15606 0.257823,-0.85339 0.04994,-1.81723 -1.04234,-1.23742 -0.945302,-1.10433 -1.63631,-1.4855 l 0.04105,1.54191 c 1.596134,1.41246 0.872269,0.378 1.545342,1.76082 z"
       id="path4644-1-6-7-5-9"
       inkscape:connector-curvature="0"
       sodipodi:nodetypes="cccccc" />
    <path
       style="fill:#000000;fill-opacity:1;stroke:none;stroke-width:0.19733544px;stroke-linecap:butt;stroke-linejoin:miter;stroke-opacity:1"
       d="m 78.275419,284.54005 c 0.114001,-1.15606 0.257823,-0.85339 0.04994,-1.81725 -1.042339,-1.23741 -0.945301,-1.10432 -1.63631,-1.48548 l 0.04105,1.54191 c 1.596126,1.41246 0.872269,0.378 1.545335,1.76082 z"
       id="path4644-1-6-7-4-4-2"
       inkscape:connector-curvature="0"
       sodipodi:nodetypes="cccccc" />
  </g>
</svg>
