<?xml version="1.0" encoding="UTF-8" standalone="no"?>
<!-- Created with Inkscape (http://www.inkscape.org/) -->

<svg
   xmlns:dc="http://purl.org/dc/elements/1.1/"
   xmlns:cc="http://creativecommons.org/ns#"
   xmlns:rdf="http://www.w3.org/1999/02/22-rdf-syntax-ns#"
   xmlns:svg="http://www.w3.org/2000/svg"
   xmlns="http://www.w3.org/2000/svg"
   xmlns:sodipodi="http://sodipodi.sourceforge.net/DTD/sodipodi-0.dtd"
   xmlns:inkscape="http://www.inkscape.org/namespaces/inkscape"
   width="100mm"
   height="100mm"
   viewBox="0 0 100 100"
   version="1.1"
   id="svg8"
   inkscape:version="0.92.4 (5da689c313, 2019-01-14)"
   sodipodi:docname="Kingfisher_alone.svg"
   inkscape:export-filename="D:\Zeichnung.png"
   inkscape:export-xdpi="16.26"
   inkscape:export-ydpi="16.26">
  <defs
     id="defs2" />
  <sodipodi:namedview
     id="base"
     pagecolor="#ffffff"
     bordercolor="#666666"
     borderopacity="1.0"
     inkscape:pageopacity="0.0"
     inkscape:pageshadow="2"
     inkscape:zoom="0.7"
     inkscape:cx="333.84841"
     inkscape:cy="-237.25869"
     inkscape:document-units="px"
     inkscape:current-layer="layer1"
     showgrid="false"
     inkscape:window-width="1920"
     inkscape:window-height="1137"
     inkscape:window-x="-8"
     inkscape:window-y="-8"
     inkscape:window-maximized="1" />
  <metadata
     id="metadata5">
    <rdf:RDF>
      <cc:Work
         rdf:about="">
        <dc:format>image/svg+xml</dc:format>
        <dc:type
           rdf:resource="http://purl.org/dc/dcmitype/StillImage" />
        <dc:title></dc:title>
      </cc:Work>
    </rdf:RDF>
  </metadata>
  <g
     inkscape:label="Ebene 1"
     inkscape:groupmode="layer"
     id="layer1"
     transform="translate(0,-197)">
    <path
       style="fill:#000000;fill-opacity:1;stroke:none;stroke-width:0.19733544px;stroke-linecap:butt;stroke-linejoin:miter;stroke-opacity:1"
       d="m 64.347961,288.18566 c -0.114,-1.15606 -0.25783,-2.32992 -0.04994,-3.29377 1.04234,-1.23742 1.157222,-1.2098 1.848237,-1.59096 l 0.312195,0.73333 c -1.596126,1.41246 -1.437412,2.76859 -2.110485,4.1514 z"
       id="path4644-73-7-1"
       inkscape:connector-curvature="0"
       sodipodi:nodetypes="ccccc" />
    <path
       style="fill:#000000;fill-opacity:1;stroke:none;stroke-width:0.19733544px;stroke-linecap:butt;stroke-linejoin:miter;stroke-opacity:1"
       d="m 59.70783,290.49798 c -0.114,-1.15607 -0.257822,-2.32993 -0.04993,-3.29379 1.042339,-1.23741 1.15723,-1.20978 1.848237,-1.59095 l 0.312195,0.73334 c -1.596126,1.41245 -1.437412,2.76857 -2.110478,4.1514 z"
       id="path4644-7-8-2-9"
       inkscape:connector-curvature="0"
       sodipodi:nodetypes="ccccc" />
    <path
       style="fill:#f28071;fill-opacity:1;stroke:none;stroke-width:0.19733544px;stroke-linecap:butt;stroke-linejoin:miter;stroke-opacity:1"
       d="m 61.321076,285.03223 c -2.239968,2.58539 -1.663177,5.08733 -1.554148,7.17174 1.224108,-5.04698 3.081391,-5.69684 5.015662,-6.67956 3.046808,-1.32159 7.120607,-3.66534 8.83039,-3.65619 3.083642,0.56086 4.109265,1.27937 4.662439,2.67183 0.49638,-2.33992 -1.578154,-3.50258 -4.945015,-4.71084 l 2.119292,-6.11708 -1.412861,-0.6328 c -1.388101,4.79241 -7.766065,8.20203 -12.715759,11.9529 z"
       id="path4640-7-3-3"
       inkscape:connector-curvature="0"
       sodipodi:nodetypes="ccccccccc" />
    <path
       style="fill:#000000;fill-opacity:1;stroke:none;stroke-width:0.19733544px;stroke-linecap:butt;stroke-linejoin:miter;stroke-opacity:1"
       d="m 59.70783,292.25576 c -0.114,-1.15606 -0.257822,-2.32993 -0.04993,-3.29379 1.042339,-1.23741 1.15723,-1.20979 1.848237,-1.59095 l 0.312195,0.73333 c -1.596126,1.41246 -1.437412,2.76859 -2.110478,4.15141 z"
       id="path4644-1-6-6-3"
       inkscape:connector-curvature="0"
       sodipodi:nodetypes="ccccc" />
    <path
       style="fill:#fb7f00;fill-opacity:1;stroke:none;stroke-width:0.19733544px;stroke-linecap:butt;stroke-linejoin:miter;stroke-opacity:1"
       d="m 35.916194,230.16141 c 0.899138,1.4418 -1.748329,9.44633 -1.748329,9.44633 0,0 -0.06063,6.77362 0.699329,10.04293 1.518354,4.66847 5.994268,11.23616 8.841544,14.41809 4.395795,3.82824 9.832548,9.3966 20.322521,12.72768 10.32195,3.27771 9.299145,3.03277 9.299145,3.03277 l 0.299711,1.34237 c 17.695857,-0.85512 8.967536,3.34748 13.821097,12.07567 1.257347,-2.72962 0.20896,-14.79079 4.661221,-21.41857 L 65.837571,232.64728 43.00941,227.42695 Z"
       id="path4568-1-5"
       inkscape:connector-curvature="0"
       sodipodi:nodetypes="ccccsccccccc" />
    <path
       style="fill:#000000;fill-opacity:1;stroke:none;stroke-width:0.19733544px;stroke-linecap:butt;stroke-linejoin:miter;stroke-opacity:1"
       d="m 48.866443,287.59134 c -0.114,-1.15607 -0.257822,-2.32993 -0.04993,-3.29378 1.042339,-1.23742 1.157229,-1.2098 1.848237,-1.59096 l 0.312194,0.73334 c -1.596126,1.41245 -1.437419,2.76858 -2.110477,4.1514 z"
       id="path4644-5-7"
       inkscape:connector-curvature="0"
       sodipodi:nodetypes="ccccc" />
    <path
       style="fill:#000000;fill-opacity:1;stroke:none;stroke-width:0.19733544px;stroke-linecap:butt;stroke-linejoin:miter;stroke-opacity:1"
       d="m 44.226312,289.90365 c -0.114,-1.15606 -0.257822,-2.32993 -0.04993,-3.29379 1.042339,-1.2374 1.157229,-1.20979 1.848237,-1.59095 l 0.312194,0.73333 c -1.596126,1.41246 -1.437411,2.76859 -2.110477,4.15141 z"
       id="path4644-7-1-8"
       inkscape:connector-curvature="0"
       sodipodi:nodetypes="ccccc" />
    <path
       style="fill:#f28071;fill-opacity:1;stroke:none;stroke-width:0.19733544px;stroke-linecap:butt;stroke-linejoin:miter;stroke-opacity:1"
       d="m 45.839558,284.43789 c -2.239969,2.5854 -1.663178,5.08734 -1.554141,7.17175 1.224101,-5.04697 3.081384,-5.69684 5.015654,-6.67956 3.046809,-1.32158 7.124003,-3.5486 8.830392,-3.65618 3.436857,0.38507 3.813218,1.15959 4.662439,2.67182 0.767419,-2.47391 -1.578154,-3.50258 -4.945014,-4.71084 l 2.119292,-6.11707 -1.412862,-0.6328 c -1.388108,4.7924 -7.766066,8.20203 -12.71576,11.95288 z"
       id="path4640-9-1"
       inkscape:connector-curvature="0"
       sodipodi:nodetypes="ccccccccc" />
    <path
       style="fill:#000000;fill-opacity:1;stroke:none;stroke-width:0.19733544px;stroke-linecap:butt;stroke-linejoin:miter;stroke-opacity:1"
       d="m 44.226312,291.66143 c -0.114,-1.15607 -0.257822,-2.32993 -0.04993,-3.29378 1.042339,-1.23742 1.157229,-1.2098 1.848237,-1.59096 l 0.312194,0.73334 c -1.596126,1.41246 -1.437411,2.76858 -2.110477,4.1514 z"
       id="path4644-1-3-7"
       inkscape:connector-curvature="0"
       sodipodi:nodetypes="ccccc" />
    <path
       style="fill:#148cf6;fill-opacity:1;stroke:none;stroke-width:0.19733544px;stroke-linecap:butt;stroke-linejoin:miter;stroke-opacity:1"
       d="m 30.571307,219.42243 c 1.81212,-5.76905 8.322356,-9.82396 15.085569,-12.1808 9.099802,-1.414 17.271735,0.73287 20.130741,3.23164 1.311389,1.02587 6.325131,8.93375 8.491887,15.36272 2.72923,0.47533 20.972536,19.93316 20.37272,31.54387 3.478558,6.62063 6.010906,10.02751 5.822446,13.30925 -1.811176,0.4349 -5.341176,1.73864 -6.477263,2.02831 -0.563057,0.14356 0.703545,7.69365 0.0181,8.75249 -1.038676,0.63696 -1.158896,-7.5e-4 -2.326255,1.53579 -1.167367,1.53656 -3.240099,19.55417 -3.652255,22.6733 -1.557236,1.30713 -0.242444,-7.31075 -2.470347,-8.60712 -0.391177,-2.8432 1.674453,-10.31746 1.627578,-10.84356 -0.274703,-3.08301 3.561534,-14.07806 2.643804,-14.28926 -5.630939,-3.46798 -12.41199,-9.02709 -15.953009,-12.44956 -7.719004,-7.46062 -18.821263,-16.0779 -12.640671,-24.4069 -2.8677,-2.70543 -6.110438,0.23033 -8.31861,-0.30523 -13.826341,-3.35351 -17.844616,-6.59193 -23.139549,-5.5976 l -0.813351,-4.88503 c 0,0 0.789532,-3.36542 1.598473,-4.87231 z"
       id="path4545-37-9"
       inkscape:connector-curvature="0"
       sodipodi:nodetypes="ccccccsccccscccsccc" />
    <path
       style="fill:#eeeeee;fill-opacity:1;stroke:none;stroke-width:0.19733544px;stroke-linecap:butt;stroke-linejoin:miter;stroke-opacity:1"
       d="m 38.713515,228.17271 11.88863,5.36949 c -3.991692,0.36927 -2.739085,1.89847 -3.496658,2.98305 -5.835652,0.29241 -6.114878,-2.55574 -10.489965,-2.73447 -0.204295,-1.67834 0.07702,-2.60786 -0.699328,-3.62937 -0.986636,-0.97655 -3.199952,-0.72056 -7.135388,-0.69929 4.790002,-1.78446 7.732192,-0.87597 9.932709,-1.28941 z"
       id="path4566-88-6"
       inkscape:connector-curvature="0"
       sodipodi:nodetypes="ccccccc" />
    <path
       style="fill:#323232;fill-opacity:0.99065393;stroke:none;stroke-width:0.19733544px;stroke-linecap:butt;stroke-linejoin:miter;stroke-opacity:1"
       d="m -0.18337281,233.85151 c 1.38255381,-0.8332 8.78276871,-4.82148 15.57575881,-7.42033 6.646155,-2.61566 15.832504,-5.98078 15.682769,-5.76551 -0.347758,1.71625 0.327595,2.50856 0.499519,3.06104 8.769035,0.60485 6.80066,1.76761 9.192173,2.49001 -1.203012,0.23615 -3.401047,0.34102 -5.68573,1.96872 l -20.395162,4.15189 c -8.2266711,1.46204 -10.9030844,1.29931 -14.86932781,1.51418 z"
       id="path4543-8-7"
       inkscape:connector-curvature="0"
       sodipodi:nodetypes="cccccccc" />
    <path
       style="fill:#817f80;fill-opacity:1;stroke:none;stroke-width:0.19733544px;stroke-linecap:butt;stroke-linejoin:miter;stroke-opacity:1"
       d="m 34.117911,223.74785 5.944315,-2.68474 4.489124,-0.92482 c -0.622296,0.45576 -0.978472,1.38673 -0.343092,2.21746 0.707402,0.78848 1.3578,0.36912 2.197901,0.49719 -0.136847,0.74099 -1.24632,1.76099 -2.048039,2.23728 -3.413406,0.30294 -6.826803,-0.47213 -10.240209,-1.34237 z"
       id="path4583-78-7"
       inkscape:connector-curvature="0"
       sodipodi:nodetypes="ccccccc" />
    <path
       style="opacity:1;vector-effect:none;fill:#000000;fill-opacity:0.77570095;fill-rule:nonzero;stroke:none;stroke-width:0.09378387;stroke-linecap:butt;stroke-linejoin:round;stroke-miterlimit:4;stroke-dasharray:none;stroke-dashoffset:0;stroke-opacity:1;paint-order:stroke fill markers"
       d="m 50.652091,220.23909 c -0.144232,1.27368 -1.898365,3.0281 -4.130549,3.0281 -2.232186,0 -3.331095,-1.17169 -3.331095,-2.45343 0,-1.28176 2.136084,-2.23512 4.352627,-2.49764 2.171882,-0.2572 3.410378,-0.73831 3.109017,1.92297 z"
       id="path4578-77-4"
       inkscape:connector-curvature="0"
       sodipodi:nodetypes="sssss" />
    <path
       style="fill:#afaeae;fill-opacity:1;stroke:none;stroke-width:0.19733544px;stroke-linecap:butt;stroke-linejoin:miter;stroke-opacity:1"
       d="m 46.167174,219.23974 c 0.844773,0.22519 1.892412,0.50846 4.104914,-0.42435 -0.107272,-1.22298 -1.731889,-1.00303 -2.201453,-1.05761 -0.511832,0.0453 -3.212497,0.96931 -1.903461,1.48196 z"
       id="path4576-5-6"
       inkscape:connector-curvature="0"
       sodipodi:nodetypes="cccc" />
    <path
       style="fill:#0f0a01;fill-opacity:0;stroke:none;stroke-width:0.19733544px;stroke-linecap:butt;stroke-linejoin:miter;stroke-opacity:1"
       d="m 45.70683,219.37271 c 1.477715,-0.74083 3.072062,-0.37703 3.396749,0.94463 0.324687,1.32166 -1.364162,2.92585 -2.797321,3.03277 -1.229724,0.0917 -3.015006,-0.96109 -3.047093,-2.08815 -0.03207,-1.12703 0.969943,-1.14842 2.447665,-1.88925 z"
       id="path4574-9-9"
       inkscape:connector-curvature="0"
       sodipodi:nodetypes="zzszz" />
    <path
       style="fill:#eeeeee;fill-opacity:1;stroke:none;stroke-width:0.19733544px;stroke-linecap:butt;stroke-linejoin:miter;stroke-opacity:1"
       d="m 41.011317,221.46084 2.048047,-0.19888 c 0.04493,2.0006 -2.266808,1.59847 -2.048047,2.93335 l -1.748328,-0.64634 1.748328,-2.08813"
       id="path4572-5-7"
       inkscape:connector-curvature="0"
       sodipodi:nodetypes="ccccc" />
    <path
       style="fill:#fb7f00;fill-opacity:1;stroke:none;stroke-width:0.19733544px;stroke-linecap:butt;stroke-linejoin:miter;stroke-opacity:1"
       d="m 34.117911,223.74785 c 0.122523,-0.43375 -0.298813,-0.75713 0.449573,-2.18756 0.900722,-0.16888 1.872571,0.16697 3.146992,-0.74577 0.68067,0.24169 0.440998,0.36124 2.947177,0.84519 -1.548116,1.05537 -3.028769,0.19345 -3.047084,2.03843 z"
       id="path4570-72-1"
       inkscape:connector-curvature="0"
       sodipodi:nodetypes="cccccc" />
    <path
       style="fill:#fb7f00;fill-opacity:1;stroke:none;stroke-width:0.19733544px;stroke-linecap:butt;stroke-linejoin:miter;stroke-opacity:1"
       d="m 44.35812,225.09022 c 4.203649,-4.65775 17.651789,-7.6868 17.941279,-3.36988 l -0.706431,2.60151 c -3.929693,2.80207 -3.223255,3.35809 -6.923026,3.02337 -2.903765,-2.78648 -4.50576,-2.48837 -10.311822,-2.255 z"
       id="path4585-0-1"
       inkscape:connector-curvature="0"
       sodipodi:nodetypes="ccccc" />
    <path
       style="fill:#eeeeee;fill-opacity:1;stroke:none;stroke-width:0.19733544px;stroke-linecap:butt;stroke-linejoin:miter;stroke-opacity:1"
       d="m 56.294739,226.78274 5.298229,-2.46089 4.238592,0.14063 c 3.502706,1.06538 6.628407,1.79724 8.447944,1.37351 l 0.594366,2.28266 c -3.545154,1.15183 -4.050444,-0.004 -4.803726,3.44525 -4.15599,-1.9831 -8.113927,-1.77508 -13.775405,-4.78116 z"
       id="path4587-3-6"
       inkscape:connector-curvature="0"
       sodipodi:nodetypes="ccccccc" />
    <path
       style="fill:#000000;fill-opacity:1;stroke:none;stroke-width:0.19733544px;stroke-linecap:butt;stroke-linejoin:miter;stroke-opacity:1"
       d="m 62.793902,283.94572 c 0.114001,-1.15606 0.257823,-0.85339 0.04994,-1.81723 -1.04234,-1.23742 -0.945302,-1.10433 -1.63631,-1.4855 l 0.04105,1.54191 c 1.596134,1.41246 0.872269,0.378 1.545342,1.76082 z"
       id="path4644-1-6-7-5-9"
       inkscape:connector-curvature="0"
       sodipodi:nodetypes="cccccc" />
    <path
       style="fill:#000000;fill-opacity:1;stroke:none;stroke-width:0.19733544px;stroke-linecap:butt;stroke-linejoin:miter;stroke-opacity:1"
       d="m 78.275419,284.54005 c 0.114001,-1.15606 0.257823,-0.85339 0.04994,-1.81725 -1.042339,-1.23741 -0.945301,-1.10432 -1.63631,-1.48548 l 0.04105,1.54191 c 1.596126,1.41246 0.872269,0.378 1.545335,1.76082 z"
       id="path4644-1-6-7-4-4-2"
       inkscape:connector-curvature="0"
       sodipodi:nodetypes="cccccc" />
  </g>
</svg>
